<svg width="300" height="300" viewBox="0 0 300 300" xmlns="http://www.w3.org/2000/svg">
  <!-- Document -->
  <rect x="70" y="50" width="160" height="200" rx="8" fill="white" stroke="rgba(255,255,255,0.9)" stroke-width="3"/>
  
  <!-- Folded corner -->
  <path d="M 205 50 L 205 75 L 230 75 Z" fill="rgba(249, 115, 22, 0.2)" stroke="rgba(255,255,255,0.7)" stroke-width="2"/>
  
  <!-- Chart bars -->
  <rect x="90" y="130" width="25" height="60" rx="3" fill="rgba(249, 115, 22, 0.7)"/>
  <rect x="125" y="110" width="25" height="80" rx="3" fill="rgba(239, 68, 68, 0.7)"/>
  <rect x="160" y="140" width="25" height="50" rx="3" fill="rgba(249, 115, 22, 0.5)"/>
  <rect x="195" y="120" width="25" height="70" rx="3" fill="rgba(239, 68, 68, 0.5)"/>
  
  <!-- Title lines -->
  <line x1="90" y1="80" x2="160" y2="80" stroke="rgba(255,255,255,0.8)" stroke-width="4" stroke-linecap="round"/>
  <line x1="90" y1="95" x2="200" y2="95" stroke="rgba(255,255,255,0.6)" stroke-width="3" stroke-linecap="round"/>
  
  <!-- User icon -->
  <circle cx="200" cy="220" r="15" fill="rgba(249, 115, 22, 0.3)" stroke="rgba(255,255,255,0.9)" stroke-width="2"/>
  <circle cx="200" cy="215" r="5" fill="rgba(255,255,255,0.9)"/>
  <path d="M 190 230 Q 200 225 210 230" stroke="rgba(255,255,255,0.9)" stroke-width="2" fill="none" stroke-linecap="round"/>
  
  <!-- Trend line overlay -->
  <polyline points="85,160 120,145 155,150 190,130 225,135" 
            stroke="rgba(255,255,255,0.8)" stroke-width="3" fill="none" stroke-linecap="round" stroke-linejoin="round"/>
  <circle cx="85" cy="160" r="4" fill="white"/>
  <circle cx="120" cy="145" r="4" fill="white"/>
  <circle cx="155" cy="150" r="4" fill="white"/>
  <circle cx="190" cy="130" r="4" fill="white"/>
  <circle cx="225" cy="135" r="4" fill="white"/>
</svg>
