<svg width="300" height="300" viewBox="0 0 300 300" xmlns="http://www.w3.org/2000/svg">
  <!-- Upward trending arrow -->
  <path d="M 60 220 L 100 180 L 140 190 L 180 140 L 220 100" 
        stroke="rgba(255,255,255,0.9)" stroke-width="6" fill="none" 
        stroke-linecap="round" stroke-linejoin="round"/>
  
  <!-- Arrow head -->
  <path d="M 220 100 L 210 115 M 220 100 L 205 105" 
        stroke="rgba(255,255,255,0.9)" stroke-width="6" 
        stroke-linecap="round" stroke-linejoin="round"/>
  
  <!-- Data points -->
  <circle cx="60" cy="220" r="8" fill="rgba(255,255,255,0.9)"/>
  <circle cx="100" cy="180" r="8" fill="rgba(255,255,255,0.9)"/>
  <circle cx="140" cy="190" r="8" fill="rgba(255,255,255,0.9)"/>
  <circle cx="180" cy="140" r="8" fill="rgba(255,255,255,0.9)"/>
  <circle cx="220" cy="100" r="10" fill="rgba(99, 102, 241, 0.9)"/>
  
  <!-- Heart with pulse -->
  <path d="M 150 80 L 160 70 Q 170 60 175 70 Q 180 60 190 70 L 150 110 L 110 70 Q 120 60 125 70 Q 130 60 140 70 Z" 
        fill="rgba(239, 68, 68, 0.3)" stroke="rgba(255,255,255,0.9)" stroke-width="2"/>
  
  <!-- Success badges -->
  <circle cx="240" cy="200" r="20" fill="rgba(16, 185, 129, 0.3)" stroke="rgba(255,255,255,0.8)" stroke-width="2"/>
  <path d="M 233 200 L 238 205 L 247 193" stroke="rgba(255,255,255,0.9)" stroke-width="3" fill="none" stroke-linecap="round" stroke-linejoin="round"/>
  
  <circle cx="80" cy="80" r="18" fill="rgba(59, 130, 246, 0.3)" stroke="rgba(255,255,255,0.8)" stroke-width="2"/>
  <text x="80" y="88" text-anchor="middle" fill="rgba(255,255,255,0.9)" font-size="20" font-weight="bold">+</text>
  
  <!-- Grid lines (subtle) -->
  <line x1="50" y1="120" x2="230" y2="120" stroke="rgba(255,255,255,0.2)" stroke-width="1" stroke-dasharray="5,5"/>
  <line x1="50" y1="160" x2="230" y2="160" stroke="rgba(255,255,255,0.2)" stroke-width="1" stroke-dasharray="5,5"/>
  <line x1="50" y1="200" x2="230" y2="200" stroke="rgba(255,255,255,0.2)" stroke-width="1" stroke-dasharray="5,5"/>
</svg>
