<svg width="300" height="300" viewBox="0 0 300 300" xmlns="http://www.w3.org/2000/svg">
  <!-- Neural network nodes -->
  <circle cx="80" cy="100" r="15" fill="rgba(255,255,255,0.9)" stroke="rgba(168, 85, 247, 0.8)" stroke-width="3"/>
  <circle cx="80" cy="150" r="15" fill="rgba(255,255,255,0.9)" stroke="rgba(168, 85, 247, 0.8)" stroke-width="3"/>
  <circle cx="80" cy="200" r="15" fill="rgba(255,255,255,0.9)" stroke="rgba(168, 85, 247, 0.8)" stroke-width="3"/>
  
  <circle cx="150" cy="80" r="15" fill="rgba(255,255,255,0.9)" stroke="rgba(219, 39, 119, 0.8)" stroke-width="3"/>
  <circle cx="150" cy="130" r="15" fill="rgba(255,255,255,0.9)" stroke="rgba(219, 39, 119, 0.8)" stroke-width="3"/>
  <circle cx="150" cy="180" r="15" fill="rgba(255,255,255,0.9)" stroke="rgba(219, 39, 119, 0.8)" stroke-width="3"/>
  <circle cx="150" cy="220" r="15" fill="rgba(255,255,255,0.9)" stroke="rgba(219, 39, 119, 0.8)" stroke-width="3"/>
  
  <circle cx="220" cy="120" r="18" fill="rgba(255,255,255,0.9)" stroke="rgba(236, 72, 153, 0.9)" stroke-width="4"/>
  <circle cx="220" cy="180" r="18" fill="rgba(255,255,255,0.9)" stroke="rgba(236, 72, 153, 0.9)" stroke-width="4"/>
  
  <!-- Connections -->
  <line x1="95" y1="100" x2="135" y2="80" stroke="rgba(255,255,255,0.4)" stroke-width="2"/>
  <line x1="95" y1="100" x2="135" y2="130" stroke="rgba(255,255,255,0.4)" stroke-width="2"/>
  <line x1="95" y1="150" x2="135" y2="130" stroke="rgba(255,255,255,0.5)" stroke-width="3"/>
  <line x1="95" y1="150" x2="135" y2="180" stroke="rgba(255,255,255,0.5)" stroke-width="3"/>
  <line x1="95" y1="200" x2="135" y2="180" stroke="rgba(255,255,255,0.4)" stroke-width="2"/>
  <line x1="95" y1="200" x2="135" y2="220" stroke="rgba(255,255,255,0.4)" stroke-width="2"/>
  
  <line x1="165" y1="80" x2="202" y2="120" stroke="rgba(255,255,255,0.4)" stroke-width="2"/>
  <line x1="165" y1="130" x2="202" y2="120" stroke="rgba(255,255,255,0.5)" stroke-width="3"/>
  <line x1="165" y1="180" x2="202" y2="180" stroke="rgba(255,255,255,0.6)" stroke-width="4"/>
  <line x1="165" y1="220" x2="202" y2="180" stroke="rgba(255,255,255,0.4)" stroke-width="2"/>
  
  <!-- Brain icon in corner -->
  <circle cx="240" cy="80" r="25" fill="rgba(168, 85, 247, 0.2)" stroke="rgba(255,255,255,0.8)" stroke-width="2"/>
  <path d="M 230 75 Q 235 70 240 75 Q 245 70 250 75 M 230 85 Q 235 90 240 85 Q 245 90 250 85" 
        stroke="rgba(255,255,255,0.9)" stroke-width="2" fill="none" stroke-linecap="round"/>
</svg>
